<svg xmlns="http://www.w3.org/2000/svg" viewBox="0 0 197.67 40.45"><defs><style>.cls-1,.cls-2{fill:#008bd5;}.cls-2{fill-rule:evenodd;}</style></defs><title>logo</title><g id="レイヤー_2" data-name="レイヤー 2"><g id="text"><path class="cls-1" d="M31.91,6.52a.51.51,0,0,1-.59.57H.59A.51.51,0,0,1,0,6.52V.6A.53.53,0,0,1,.59,0H31.32a.53.53,0,0,1,.59.6Zm0,9.46a.53.53,0,0,1-.59.6h-9c-.4,0-.59.19-.59.57v5q0,.6-.57.6H10.77q-.57,0-.57-.6v-5a.51.51,0,0,0-.59-.57h-9A.53.53,0,0,1,0,16V10.06a.51.51,0,0,1,.59-.57H31.32a.51.51,0,0,1,.59.57Zm6.66-6.54c0,.4-.19.59-.57.59H33.78a.52.52,0,0,1-.59-.59V.6a.53.53,0,0,1,.59-.6H38q.57,0,.57.6Zm6.8,0a.52.52,0,0,1-.59.59H40.56c-.38,0-.57-.19-.57-.59V.6q0-.6.57-.6h4.22a.52.52,0,0,1,.59.6Z"/><path class="cls-1" d="M61.22,6.58a.51.51,0,0,1-.57.59H48.86c-.41,0-.62-.2-.62-.59V.68q0-.57.6-.57H60.63a.51.51,0,0,1,.59.57Zm16.27,9.91a.63.63,0,0,1-.57.68L48.75,22.73q-.51,0-.51-.48V13.8a.66.66,0,0,1,.57-.71L77,7.54q.51,0,.51.48Z"/><path class="cls-1" d="M112.79,17.69c0,.37-.2.56-.6.56h-8a.45.45,0,0,0-.51.51,9.89,9.89,0,0,0,.22,1.73,10.69,10.69,0,0,1,.21,1.73q0,.51-.54.51H93.18a.59.59,0,0,1-.65-.57l-.43-3.31a.61.61,0,0,0-.65-.6H81.13c-.4,0-.59-.19-.59-.56v-5.9a.52.52,0,0,1,.59-.6h9.44a.45.45,0,0,0,.51-.51c0-1-.26-1.5-.77-1.5H81.13c-.4,0-.59-.19-.59-.56V2.69c0-.38.19-.56.59-.56h8.31A.46.46,0,0,0,90,1.61a3.57,3.57,0,0,0-.06-.56,3.65,3.65,0,0,1-.06-.53A.45.45,0,0,1,90.34,0h10.37c.42,0,.67.35.74,1.06s.31,1.07.71,1.07h10c.4,0,.6.18.6.56V8.62c0,.37-.2.56-.6.56H103a.45.45,0,0,0-.51.51,8.18,8.18,0,0,0,.08.91.62.62,0,0,0,.68.59h8.9a.53.53,0,0,1,.6.6Z"/><path class="cls-1" d="M149,2.78l-2.21,9.77a.67.67,0,0,1-.71.57H135.7q-.48,0-.48-.45a6.72,6.72,0,0,1,.32-1.49,6.43,6.43,0,0,0,.33-1.46q0-.45-.48-.45h-2.95a.48.48,0,0,0-.54.54v0l1.16,12.33c0,.36-.14.54-.53.54h-10.4a.58.58,0,0,1-.63-.6L120.34,9.86a.59.59,0,0,0-.65-.59H116.4q-.57,0-.57-.6V2.8a.51.51,0,0,1,.57-.59H119a.46.46,0,0,0,.53-.52,3.43,3.43,0,0,0,0-.56,3.38,3.38,0,0,1-.06-.53A.48.48,0,0,1,120,.06h10.4c.42,0,.65.36.71,1.07s.28,1.08.68,1.08h16.78c.3,0,.45.14.45.43Z"/><path class="cls-1" d="M184.2,17.69c0,.37-.19.56-.59.56h-8q-.6,0-.51.6l.4,3.31c0,.38-.14.57-.52.57H164.59a.59.59,0,0,1-.68-.57l-.39-3.31a.61.61,0,0,0-.66-.6H152.55c-.4,0-.6-.19-.6-.56v-5.9a.53.53,0,0,1,.6-.6H162c.41,0,.59-.18.53-.56l-.11-.85a.61.61,0,0,0-.65-.6h-9.18c-.4,0-.6-.19-.6-.56V2.69c0-.38.2-.56.6-.56h8.27c.4,0,.57-.21.51-.61l-.11-.94c0-.39.13-.58.51-.58h10.4a.57.57,0,0,1,.65.58l.12.94a.62.62,0,0,0,.68.61h10c.4,0,.59.18.59.56V8.62c0,.37-.19.56-.59.56h-9.16q-.55,0-.51.6l.09.85c0,.38.26.56.68.56h8.9a.52.52,0,0,1,.59.6Zm6.69-8.28a.52.52,0,0,1-.59.59h-4.22c-.38,0-.57-.19-.57-.59V.57a.5.5,0,0,1,.57-.57h4.22a.51.51,0,0,1,.59.57Zm6.78,0a.52.52,0,0,1-.6.59h-4.22c-.38,0-.57-.19-.57-.59V.57a.5.5,0,0,1,.57-.57h4.22q.6,0,.6.57Z"/><path class="cls-1" d="M54.43,31.1a1.51,1.51,0,0,1,.68.15,1.68,1.68,0,0,1,.54.41,2.12,2.12,0,0,1,.34.63,2.2,2.2,0,0,1,.13.78v3.26a2.37,2.37,0,0,1-.12.76,1.82,1.82,0,0,1-.34.61,1.54,1.54,0,0,1-.53.42,1.63,1.63,0,0,1-.7.15h-4V31.1Zm-2.31,6.29h1.57A.64.64,0,0,0,54,37.3a.82.82,0,0,0,.25-.24,1.19,1.19,0,0,0,.16-.34,1.23,1.23,0,0,0,.06-.39V33.07a1.4,1.4,0,0,0-.06-.41,1.19,1.19,0,0,0-.16-.34.8.8,0,0,0-.26-.23.63.63,0,0,0-.33-.09H52.12Z"/><path class="cls-1" d="M61.79,32.58a1.49,1.49,0,0,1,1.1.41,1.75,1.75,0,0,1,.41,1.27,1.78,1.78,0,0,1-.38,1.27,1.54,1.54,0,0,1-1.13.38H59.23v.5a2.43,2.43,0,0,0,0,.52.53.53,0,0,0,.14.3.43.43,0,0,0,.26.13,2.63,2.63,0,0,0,.43,0h2.59v.88H59.32a2.9,2.9,0,0,1-.83-.1,1.2,1.2,0,0,1-.9-.89,3.11,3.11,0,0,1-.1-.87v-2a3.06,3.06,0,0,1,.1-.87,1.2,1.2,0,0,1,.9-.89,2.9,2.9,0,0,1,.83-.1Zm-2.56,2.51h1.86a1.32,1.32,0,0,0,.3,0,.39.39,0,0,0,.2-.11.7.7,0,0,0,.12-.26,2.59,2.59,0,0,0,0-.44,2.42,2.42,0,0,0,0-.42.45.45,0,0,0-.1-.23.36.36,0,0,0-.2-.11,1.47,1.47,0,0,0-.32,0H59.9a1.09,1.09,0,0,0-.34,0,.43.43,0,0,0-.2.15.7.7,0,0,0-.1.29,3,3,0,0,0,0,.46Z"/><path class="cls-1" d="M68.23,32.58a4,4,0,0,1,.84.08,1.19,1.19,0,0,1,.57.29,1.22,1.22,0,0,1,.32.54,3.36,3.36,0,0,1,.1.85v3.93H68.37V34.44a3.08,3.08,0,0,0,0-.48.59.59,0,0,0-.12-.29.41.41,0,0,0-.21-.15.93.93,0,0,0-.31,0H66v4.79H64.27V32.58Z"/><path class="cls-1" d="M73,30.78v3.64h.11l2-1.84h1.91l-3,2.31,3.28,3.38h-2L73.24,36l-.14-.2H73v2.52H71.28V30.78Z"/><path class="cls-1" d="M82.12,32.58v4.81h1.94v.88H78.45v-.88h2V33.48h-2v-.9Zm0-1.8v1H80.41v-1Z"/><path class="cls-1" d="M87.87,31.1l1.25,3.44,1.26-3.44H92.2l-2.26,4.59v2.58H88.22v-2.6L86,31.1Z"/><path class="cls-1" d="M96.46,32.58a4.12,4.12,0,0,1,.86.08,1.19,1.19,0,0,1,.57.29,1.22,1.22,0,0,1,.32.54,3,3,0,0,1,.1.85v3.93H94a1.58,1.58,0,0,1-.65-.14,1.43,1.43,0,0,1-.51-.36,1.78,1.78,0,0,1-.33-.57,2,2,0,0,1-.12-.7,2,2,0,0,1,.12-.7,1.78,1.78,0,0,1,.33-.57,1.39,1.39,0,0,1,.51-.39A1.58,1.58,0,0,1,94,34.7H96.6v-.48a.84.84,0,0,0-.15-.59.73.73,0,0,0-.52-.15H93.28v-.9Zm-1.26,3a4.22,4.22,0,0,0-.57,0,.76.76,0,0,0-.34.15.48.48,0,0,0-.18.26,1.18,1.18,0,0,0,0,.4c0,.64.14,1,.44,1h2.09V35.58Z"/><path class="cls-1" d="M105.19,32.58v6a3.26,3.26,0,0,1-.1.89,1.23,1.23,0,0,1-.32.57,1.29,1.29,0,0,1-.58.31,3.37,3.37,0,0,1-.84.09h-2.78v-.88h1.52l.7,0a1.05,1.05,0,0,0,.42-.12.44.44,0,0,0,.21-.27,1.6,1.6,0,0,0,0-.48v-.38h-2.21a3.05,3.05,0,0,1-.85-.1,1.31,1.31,0,0,1-.57-.31,1.41,1.41,0,0,1-.32-.58,3.11,3.11,0,0,1-.1-.87v-2a3.2,3.2,0,0,1,.11-.88,1.23,1.23,0,0,1,.33-.57,1.33,1.33,0,0,1,.57-.32,3.37,3.37,0,0,1,.84-.09Zm-4,3.9a2.46,2.46,0,0,0,0,.43.66.66,0,0,0,.11.28.34.34,0,0,0,.2.15,1.06,1.06,0,0,0,.34,0h1.65V33.48H102.3a4.51,4.51,0,0,0-.58,0,.76.76,0,0,0-.35.12.47.47,0,0,0-.18.27,1.33,1.33,0,0,0,0,.44Z"/><path class="cls-1" d="M110.48,32.58v4.81h1.94v.88h-5.61v-.88h2V33.48h-2v-.9Zm0-1.8v1h-1.72v-1Z"/><path class="cls-1" d="M121.82,31.1V32h-1.88v5.39h1.88v.88h-5.49v-.88h1.89V32h-1.89v-.9Z"/><path class="cls-1" d="M126.92,32.58a4,4,0,0,1,.84.08,1.29,1.29,0,0,1,.57.29,1.32,1.32,0,0,1,.32.54,3.4,3.4,0,0,1,.09.85v3.93h-1.69V34.44a3.23,3.23,0,0,0,0-.48.87.87,0,0,0-.12-.29.41.41,0,0,0-.21-.15,1,1,0,0,0-.31,0h-1.71v4.79H123V32.58Z"/><path class="cls-1" d="M135.43,32.58v.9h-3.19a1,1,0,0,0-.32,0,.41.41,0,0,0-.21.15.88.88,0,0,0-.11.29,3.23,3.23,0,0,0,0,.48V36.5c0,.46.12.73.37.83a4.77,4.77,0,0,0,1.16.07h2.33v.88h-3.76a2.9,2.9,0,0,1-.83-.1,1.2,1.2,0,0,1-.9-.89,3.11,3.11,0,0,1-.1-.87v-2a3.06,3.06,0,0,1,.1-.87,1.2,1.2,0,0,1,.9-.89,2.9,2.9,0,0,1,.83-.1Z"/><path class="cls-1" d="M138.83,37.2v1h-1.72v-1Z"/><path class="cls-2" d="M172.51,35.63v.56a.29.29,0,0,1-.29.29h-.88v1.63a2.51,2.51,0,0,1-2.53,2.34H161.3v-12h7.75c1.71,0,2.32,1.18,2.29,2.87v1.1h.88a.29.29,0,0,1,.29.29v.85"/><path class="cls-2" d="M152,38h0a.86.86,0,0,1,.85-.85H161v1.7H152.8A.86.86,0,0,1,152,38Z"/><path class="cls-2" d="M152,30.86h0a.86.86,0,0,1,.85-.85H161v1.7H152.8A.86.86,0,0,1,152,30.86Z"/><path class="cls-1" d="M196.61,35.26H169.1a.79.79,0,1,1,0-1.58h26.72V27.17h-8.68a.79.79,0,0,1-.79-.79V21.17a.79.79,0,0,1,.79-.79h8.68V15.25H179.48a.79.79,0,1,1,0-1.58h17.13a.79.79,0,0,1,.79.79v6.71a.79.79,0,0,1-.79.79h-8.68v3.63h8.68a.79.79,0,0,1,.79.79v8.09A.79.79,0,0,1,196.61,35.26Z"/></g></g></svg>